<svg xmlns="http://www.w3.org/2000/svg" xmlns:xlink="http://www.w3.org/1999/xlink" viewBox="0 0 1493.25 996"><defs><style>.cls-1,.cls-4,.cls-5{stroke:#000;stroke-miterlimit:10;}.cls-1{fill:url(#linear-gradient);}.cls-2{fill:#e734b7;}.cls-3{fill:url(#linear-gradient-2);}.cls-4,.cls-5{stroke-width:3px;}.cls-4{fill:url(#linear-gradient-3);}.cls-5{fill:url(#linear-gradient-4);}</style><linearGradient id="linear-gradient" x1="641.67" y1="805.42" x2="994.68" y2="-233.51" gradientUnits="userSpaceOnUse"><stop offset="0" stop-color="#144264"/><stop offset="0.7" stop-color="#140f40"/></linearGradient><linearGradient id="linear-gradient-2" x1="999.56" y1="328.13" x2="999.56" y2="328.13" xlink:href="#linear-gradient"/><linearGradient id="linear-gradient-3" x1="726.01" y1="881.33" x2="730.52" y2="226.78" gradientUnits="userSpaceOnUse"><stop offset="0" stop-color="#e73745"/><stop offset="1" stop-color="#e734c9"/></linearGradient><linearGradient id="linear-gradient-4" x1="731.08" y1="881.86" x2="729.24" y2="224.53" gradientUnits="userSpaceOnUse"><stop offset="0" stop-color="#e73745"/><stop offset="1" stop-color="#e734b7"/></linearGradient></defs><title>Wallpaper</title><g id="Icon_Colored" data-name="Icon Colored"><g id="Icon_Trim" data-name="Icon Trim"><rect class="cls-1" x="-139.37" y="0.5" width="1771" height="995"/><path class="cls-2" d="M568.18,71.5v66.42c0,9.65,15,9.67,15,0V71.5c0-9.65-15-9.67-15,0Z"/><path class="cls-2" d="M912.36,75.12V195.89c0,9.65,15,9.67,15,0V75.12c0-9.65-15-9.66-15,0Z"/><path class="cls-2" d="M716.72,42.52v65.21c0,9.65,15,9.67,15,0V42.52c0-9.65-15-9.67-15,0Z"/><path class="cls-2" d="M486.06,227.29V323.9c0,9.65,15,9.67,15,0V227.29c0-9.65-15-9.67-15,0Z"/><path class="cls-3" d="M999.56,276.8V379.45"/><path class="cls-2" d="M992.06,276.8V379.45c0,9.65,15,9.67,15,0V276.8c0-9.65-15-9.67-15,0Z"/><path class="cls-2" d="M839,242.56l12.75-21c3.35-5.52-5.3-10.55-8.64-5.05l-12.75,21c-3.35,5.52,5.3,10.55,8.64,5.05Z"/><path class="cls-2" d="M801.55,240.33l-5-19.26c-1.63-6.22-11.28-3.59-9.65,2.66L791.91,243c1.63,6.22,11.27,3.58,9.64-2.66Z"/><path class="cls-2" d="M855.64,285.46l29-9.64c6.07-2,3.47-11.68-2.66-9.64l-29,9.63c-6.08,2-3.48,11.68,2.65,9.65Z"/><rect class="cls-4" x="486.67" y="872.89" width="478.36" height="62.39" rx="30"/><path class="cls-5" d="M715.11,805,597.94,696.1l-.09-.72a32.31,32.31,0,0,1,37.53-35.67h0l58.44,53.57a2.38,2.38,0,0,0,4-1.74l1-205.4a2.35,2.35,0,0,0-1.18-2.07l-15.19-8.79a165.75,165.75,0,0,0-49.31-18.85l-10.79-2.25a128.61,128.61,0,0,0-26.18-2.7h-20A207.14,207.14,0,0,0,521,479l-3,.83-.18.05-4.73,1.72a272.69,272.69,0,0,0-35,15.61l-14,7.48a2.29,2.29,0,0,0-.41.28h0a2.38,2.38,0,0,1-3.29-3.41l7.73-21A432.83,432.83,0,0,1,699.27,234h0a2.38,2.38,0,0,0,.6-1.52l1-37.37a2.37,2.37,0,0,1,2.37-2.31h51.47a2.38,2.38,0,0,1,2.38,2.37v37.27a2.38,2.38,0,0,0,.6,1.59h0a455.44,455.44,0,0,1,237,257.37l4.3,11.79a5.45,5.45,0,0,1-6.5,8.52h0q-11.79-5.9-23-12.84l-32.28-20-.38-.19-7-2.73c-23.14-9-72.72-6.18-72.72-6.18-2.19.45-42.8,8-42.8,8-.53.16-17.37,6.83-17.68,7.28l-34.29,16.09c-6.26,3.67-4.18,15.11-4.18,34.87L766.3,700.3a2.37,2.37,0,0,0,3.87,2.17l51.56-43.28a2.38,2.38,0,0,1,3.39.35h0a27.77,27.77,0,0,1,29.59,36.28l-.22.67a2.38,2.38,0,0,1-.21,3.19L744.69,804.74A21.55,21.55,0,0,1,715.11,805Z"/></g></g></svg>